# xmcd
# Copyright (C) 1995-1998 Ti Kan
#
# Track frame offsets:
#       150
#       18057
#       38042
#       53237
#       78010
#       97650
#       117910
#       132500
#       154055
#       175220
#       195682
#       216095
#
# Disc length: 3077 seconds
#
# Revision: 0
# Processed by: cddbd v1.5.1PL0 Copyright (c) Steve Scherf et al.
# Submitted via: CD-Transfer v1.0
#
DISCID=8f0c030c
DTITLE=Nanina Ghelfi Band - 
DYEAR=93
DGENRE=
TTITLE0=Too Bad
TTITLE1=I just love to waste my time
TTITLE2=Don't wake me up
TTITLE3=Only one life
TTITLE4=Hole in my soul
TTITLE5=Some nights
TTITLE6=It's gotta be you
TTITLE7=Ballet of emotions
TTITLE8=What I can't forget
TTITLE9=Every word a Poem
TTITLE10=You don't need a key
TTITLE11=Long lists
EXTD=
EXTT0=
EXTT1=
EXTT2=
EXTT3=
EXTT4=
EXTT5=
EXTT6=
EXTT7=
EXTT8=
EXTT9=
EXTT10=
EXTT11=
PLAYORDER=
